 Video #0
      ID : 0
      Format : MPEG-4 Visual
      Format profile : Advanced Simple@L5
      Format settings, BVOP : Yes
      Format settings, QPel : No
      Format settings, GMC : No warppoints
      Format settings, Matrix : Default (H.263)
      Muxing mode : Packed bitstream
      Codec ID : XVID
      Codec ID/Hint : XviD
      Duration : 1h 36mn
      Bit rate : 1 696 Kbps
      Width : 720 pixels
      Height : 296 pixels
      Display aspect ratio : 2.40:1
      Frame rate : 23.976 fps
      Resolution : 8 bits
      Colorimetry : 4:2:0
      Scan type : Progressive
      Bits/(Pixel*Frame) : 0.332
      Stream size : 1.14 GiB (53%)
      Writing library : XviD 1.3.0.dev55
   Audio #1
      ID : 1
      Format : DTS
      Format/Info : Digital Theater Systems
      Codec ID : 2001
      Codec ID/Info : Digital Theater Systems
      Duration : 1h 36mn
      Bit rate mode : Constant
      Bit rate : 1 510 Kbps
      Channel(s) : 6 channels
      Channel positions : Front: L C R, Side: L R, LFE
      Sampling rate : 48.0 KHz
      Resolution : 24 bits
      Stream size : 1.01 GiB (47%)
      Alignment : Split accross interleaves
      Interleave, duration : 42 ms (1.00 video frame)
      Interleave, preload duration : 500 ms